HIERARCHY
ROOT Hips
{
  OFFSET -187.679 86.5976 -156.378
  CHANNELS 6 Xposition Yposition Zposition Zrotation Xrotation Yrotation
  JOINT LeftUpLeg
  {
    OFFSET 8.64259 1.95398 -2.38835
    CHANNELS 3 Zrotation Xrotation Yrotation
    JOINT LeftLeg
    {
      OFFSET 43.7702 0 0
      CHANNELS 3 Zrotation Xrotation Yrotation
      JOINT LeftFoot
      {
        OFFSET 40.6238 0 0
        CHANNELS 3 Zrotation Xrotation Yrotation
        JOINT LeftToeBase
        {
          OFFSET 12.7242 0 0
          CHANNELS 3 Zrotation Xrotation Yrotation
          End Site
          {
            OFFSET 0 0 0
          }
        }
      }
    }
  }
  JOINT RightUpLeg
  {
    OFFSET -8.2249 1.95398 -2.59336
    CHANNELS 3 Zrotation Xrotation Yrotation
    JOINT RightLeg
    {
      OFFSET 43.5653 0 0
      CHANNELS 3 Zrotation Xrotation Yrotation
      JOINT RightFoot
      {
        OFFSET 40.6238 0 0
        CHANNELS 3 Zrotation Xrotation Yrotation
        JOINT RightToeBase
        {
          OFFSET 12.7242 0 0
          CHANNELS 3 Zrotation Xrotation Yrotation
          End Site
          {
            OFFSET 0 0 0
          }
        }
      }
    }
  }
  JOINT Spine
  {
    OFFSET 0.165834 0.87714 6.61349
    CHANNELS 3 Zrotation Xrotation Yrotation
    JOINT Spine1
    {
      OFFSET 7.38963 1.71661e-005 0
      CHANNELS 3 Zrotation Xrotation Yrotation
      JOINT Spine2
      {
        OFFSET 11.9445 1.14441e-005 0
        CHANNELS 3 Zrotation Xrotation Yrotation
        JOINT Spine3
        {
          OFFSET 14.7254 4.19617e-005 0
          CHANNELS 3 Zrotation Xrotation Yrotation
          JOINT Spine4
          {
            OFFSET 10.9679 0 0
            CHANNELS 3 Zrotation Xrotation Yrotation
            JOINT RightShoulder
            {
              OFFSET 2.46616 -1.6653 3.69651
              CHANNELS 3 Zrotation Xrotation Yrotation
              JOINT RightArm
              {
                OFFSET 13.0012 0 0
                CHANNELS 3 Zrotation Xrotation Yrotation
                JOINT RightForeArm
                {
                  OFFSET 28.7848 1.52588e-005 0
                  CHANNELS 3 Zrotation Xrotation Yrotation
                  JOINT RightHand
                  {
                    OFFSET 26.5688 1.52588e-005 0
                    CHANNELS 3 Zrotation Xrotation Yrotation
                    End Site
                    {
                      OFFSET 0 0 0
                    }
                  }
                }
              }
            }
            JOINT LeftShoulder
            {
              OFFSET 2.38034 -1.29275 -3.7523
              CHANNELS 3 Zrotation Xrotation Yrotation
              JOINT LeftArm
              {
                OFFSET 16.3182 6.10352e-005 0
                CHANNELS 3 Zrotation Xrotation Yrotation
                JOINT LeftForeArm
                {
                  OFFSET 27.0901 0 0
                  CHANNELS 3 Zrotation Xrotation Yrotation
                  JOINT LeftHand
                  {
                    OFFSET 24.5451 1.52588e-005 0
                    CHANNELS 3 Zrotation Xrotation Yrotation
                    End Site
                    {
                      OFFSET 0 0 0
                    }
                  }
                }
              }
            }
            JOINT Neck
            {
              OFFSET 5.0226 -0.0266342 0
              CHANNELS 3 Zrotation Xrotation Yrotation
              JOINT Head
              {
                OFFSET 6.69363 2.86102e-005 0
                CHANNELS 3 Zrotation Xrotation Yrotation
                End Site
                {
                  OFFSET 0 0 0
                }
              }
            }
          }
        }
      }
    }
  }
}
MOTION
Frames:	18
Frame Time:	0.0416667
-82.2634 91.8438 -12.5788 87.3208 -16.1491 80.6089 -175.992 37.5429 77.0471 -55.8171 34.2353 2.9732 70.4777 6.67853 5.48988 18.0654 -0.753467 -8.12793 168.594 -11.8052 95.6592 -64.6494 6.95055 6.90513 65.0626 -2.94137 -0.396718 19.5647 -3.50956 5.43241 3.48692 8.57174 -88.0112 9.61517 7.84891 3.33833 -2.03536 7.98815 2.98793 -24.6764 6.48314 5.54803 -4.66371 6.48314 5.54802 91.6703 -29.0489 -103.603 -20.5305 -19.8769 -19.7501 -49.3628 15.7538 -92.6013 -5.98407 -0.505301 5.31336 -87.1478 -41.3255 81.6158 -23.2601 29.704 30.9303 42.6068 -7.34999 -72.2487 1.05088 -0.0225929 -2.06305 31.8093 -33.0314 -25.5571 7.14874 -21.0553 10.3339 
-77.2398 90.8562 -7.30343 87.3911 -17.7444 79.8933 -176.77 35.6394 77.8351 -63.3975 29.4207 4.60471 78.8138 10.4223 3.37278 13.6891 -4.89339 -2.42135 164.081 -3.3054 92.5225 -82.1407 13.9485 4.26883 68.1645 -4.52356 -1.60741 20.2536 -3.72946 6.41898 3.0506 8.61312 -87.8719 9.52762 7.04098 3.68392 -2.12853 7.19618 3.36943 -24.7279 5.60944 5.63148 -4.71523 5.60946 5.63147 89.2701 -35.1362 -106.092 -15.571 -23.8519 -8.65286 -51.3235 16.3525 -92.5645 -5.43334 -0.497916 6.27128 -88.7083 -43.0263 79.4241 -13.9422 30.0453 21.588 41.4763 -10.6234 -76.7574 0.944872 -0.0221218 -1.95574 30.1818 -30.7898 -25.8339 7.982 -19.1952 7.84418 
-72.3373 90.0528 -2.15624 88.2814 -18.8924 77.4246 -177.014 30.0198 77.8481 -63.8151 27.7623 4.81616 82.6995 12.3353 2.73227 20.1586 -1.76938 -3.94861 162.394 6.93701 90.1929 -96.9016 16.0864 -0.146971 73.0415 -6.00975 -2.36438 17.9847 -3.73165 5.14081 2.43531 8.91647 -87.5885 8.91036 5.93171 4.37176 -2.75351 6.1182 4.1062 -25.295 4.34593 5.9506 -5.28235 4.34592 5.95059 87.7882 -38.8422 -107.433 -6.41764 -26.5707 3.39181 -52.6142 16.8268 -92.8682 -4.63697 -0.435757 6.14159 -89.211 -43.6235 78.751 -2.81376 26.9315 5.92809 39.731 -13.2279 -81.615 4.13834 0.133987 -0.337601 32.155 -28.8126 -23.7007 7.26894 -17.9222 4.00495 
-67.2553 89.2957 3.19125 88.4571 -19.874 76.2002 -176.874 24.2997 79.6042 -63.4998 26.2787 4.91657 87.4868 13.9538 0.478537 22.4732 -0.821313 -4.27 165.147 17.5786 88.6335 -108.469 13.4213 -3.26106 78.3482 -7.44119 -2.48469 14.2273 -4.39318 4.74144 1.7821 9.04705 -87.4432 8.65952 4.68876 4.75498 -3.0109 4.89322 4.54421 -25.51 3.04576 5.9414 -5.49737 3.04576 5.9414 88.2082 -39.467 -106.492 6.86165 -29.844 14.501 -50.6704 17.4426 -92.7762 -7.41592 -0.759754 7.22746 -88.4957 -40.891 79.2776 3.75983 18.2685 -8.71477 36.2677 -14.1835 -87.2378 5.68879 0.340798 1.89776 32.9945 -26.3258 -22.6534 7.18398 -15.8566 1.55358 
-62.3185 88.9147 9.0837 87.9369 -22.5648 78.0364 -174.835 17.8118 85.6343 -61.0783 25.9516 4.88486 92.383 14.7162 -3.32419 22.9472 -0.581568 -4.46904 170.242 27.8405 91.2561 -114.974 11.5495 -4.35299 80.8267 -7.98561 -4.31344 15.6496 -5.06347 7.08588 1.32048 8.94884 -87.7105 8.88897 3.65343 4.28515 -2.78336 3.83831 4.12041 -25.2801 2.19862 5.18308 -5.26744 2.19863 5.18307 90.3637 -37.7511 -103.264 24.3043 -35.7759 25.8297 -54.0851 19.2417 -90.3159 -3.44364 -0.25555 4.31994 -87.9983 -37.8328 79.4087 7.12092 6.31485 -17.906 32.2463 -13.8039 -94.2181 5.6843 0.193442 -0.161723 32.9859 -22.4843 -20.5789 6.55693 -12.9461 0.537518 
-57.1038 88.8725 15.0015 85.8987 -24.8317 79.2676 -172.592 12.1584 90.7796 -56.5809 28.2592 5.09437 91.965 15.2087 -2.19411 28.1294 1.2198 -4.55868 175.015 39.5205 92.6161 -116.697 14.5422 -4.61076 83.0662 -8.3094 -4.47484 16.7889 -5.20545 8.06983 0.695199 8.56022 -87.9291 9.69695 2.32203 3.92556 -1.97753 2.49245 3.81974 -24.4698 1.03622 4.44093 -4.45709 1.03622 4.44092 91.7594 -36.8757 -101.014 41.7516 -39.4146 38.8017 -59.2337 20.6787 -87.1541 -1.70824 -0.100364 2.8502 -87.3536 -33.9985 79.6133 10.6964 -5.17662 -24.11 31.1779 -13.802 -101.181 8.46202 0.505756 2.0543 31.3938 -18.0561 -20.1291 5.46993 -9.11007 0.02931 
-51.3371 89.415 21.5089 84.8336 -26.0586 81.2067 -170.91 5.66436 95.8496 -50.7186 32.2042 6.8409 86.8237 13.6606 -0.0875268 34.6779 2.87884 -2.50969 178.37 48.2331 93.6029 -113.088 18.9485 -4.57891 86.0754 -8.52814 -3.11383 15.7613 -4.25761 5.22601 -0.197821 8.24029 -88.2312 10.3737 0.415878 3.47676 -1.30181 0.568391 3.45512 -23.8002 -0.647613 3.44119 -3.78754 -0.647616 3.44118 92.9489 -34.6764 -99.4183 56.4456 -39.0594 50.7617 -62.3753 21.3654 -84.5679 -2.11157 -0.129338 2.96601 -85.548 -27.2751 81.3871 11.6601 -14.752 -26.8015 27.9598 -13.3852 -108.189 7.41805 0.391334 1.38468 30.0427 -13.1083 -19.4412 3.33511 -4.8788 -1.49693 
-45.091 90.4268 28.1985 84.9873 -27.7466 83.6668 -168.893 -3.32115 99.7366 -41.0653 35.6386 8.7593 77.0771 9.74197 2.57846 44.9485 5.91616 0.297302 -178.345 53.5787 93.7748 -105.429 21.4126 -4.68549 88.1033 -8.13788 -1.84815 16.716 -3.9688 5.0444 -1.09564 8.08588 -88.5768 10.7134 -1.52602 2.97027 -0.960198 -1.3939 3.03448 -23.4836 -2.34795 2.37478 -3.47092 -2.34793 2.37478 94.601 -32.1299 -96.8554 66.1198 -37.7378 59.7324 -60.8742 22.4394 -83.2322 -1.37212 -0.0662538 1.503 -83.7394 -19.5161 83.3284 11.1823 -22.8914 -25.3167 24.6121 -12.2435 -115.055 9.56597 0.534342 1.76051 29.9916 -8.24785 -18.933 1.20212 -0.373254 -2.50129 
-38.576 91.6503 35.0763 84.779 -30.5291 86.4512 -165.973 -12.7865 103.959 -28.6943 40.0319 9.02284 62.2927 3.40024 6.4457 52.2167 8.43791 1.0592 -175.796 57.1295 94.8496 -94.9606 21.4307 -4.82564 86.9503 -7.3105 0.185289 17.964 -3.77029 5.21571 -1.77502 8.00004 -89.0771 10.9026 -3.10726 2.12846 -0.766668 -3.01059 2.26318 -23.3267 -3.60316 1.09544 -3.31407 -3.60314 1.09545 96.7268 -27.5901 -93.5732 71.2941 -35.5824 64.5423 -63.3437 23.0988 -82.0683 1.41592 0.0360099 -1.1234 -82.294 -12.3027 84.9929 10.3481 -27.8566 -22.8981 21.2503 -10.9035 -120.46 11.175 0.737511 2.72766 32.1547 -3.60762 -16.7574 -1.83253 3.60609 -3.7726 
-31.6199 92.9953 42.233 83.626 -34.6961 89.3935 -163.413 -20.1494 106.927 -19.5449 38.2353 10.2989 52.097 -1.97512 3.31778 35.2875 2.88331 -1.72264 -174.633 58.3963 97.6004 -82.4961 15.1904 -4.78158 83.2413 -6.78468 -0.595773 18.0884 -3.04303 3.45007 -2.11867 7.96586 -89.6987 10.9652 -4.07839 0.98719 -0.699899 -4.031 1.166 -23.2866 -4.18621 -0.286334 -3.27391 -4.18621 -0.286342 91.7715 -28.9011 -103.446 59.4237 -19.2313 64.4439 -58.3647 23.3671 -90.007 -0.0379008 0.00201521 0.718619 -81.2728 -7.25951 86.5202 9.66411 -29.8054 -22.5197 18.593 -9.59247 -123.333 11.231 0.761151 2.91225 34.8181 0.486055 -15.0846 -4.55491 7.24664 -3.65061 
-24.5469 93.8906 49.336 81.2901 -38.5629 91.678 -163.144 -22.3843 107.596 -21.3792 34.1925 12.2675 53.5021 -1.33258 1.99584 15.9491 -4.48739 -1.28356 -175.907 58.3666 101.088 -69.7064 8.071 -3.77512 79.5332 -6.34113 -0.566087 19.8893 -2.57227 3.13349 -2.18565 7.99342 -90.3681 10.8858 -4.52176 -0.306717 -0.777323 -4.53089 -0.107006 -23.3691 -4.22016 -1.65391 -3.35642 -4.22017 -1.65392 95.6747 -27.9698 -95.6634 55.5946 -22.1114 62.8125 -51.671 23.6792 -92.2803 -2.49239 -0.122011 0.809759 -80.9365 -1.7083 85.9456 5.86698 -29.9229 -23.0039 17.5398 -9.27722 -125.181 10.7207 0.529414 1.15207 37.2681 3.66182 -13.618 -5.55071 9.89552 -3.18927 
-17.7341 93.8915 55.8506 80.2245 -41.9426 92.3184 -165.164 -22.7918 105.243 -30.3756 31.4965 11.8074 57.5887 1.10171 3.52009 17.6645 -2.42602 -4.55456 -177.876 56.2292 102.489 -59.0023 1.31906 -2.18738 76.0786 -5.6166 -0.383865 22.6115 -1.57043 1.76598 -2.17099 8.08958 -90.7874 10.6762 -4.68602 -1.13909 -0.986639 -4.7316 -0.931318 -23.5733 -4.12679 -2.49677 -3.56063 -4.12679 -2.49676 92.5101 -30.7788 -101.371 45.992 -12.8505 60.4692 -45.3375 21.376 -97.8907 -5.29303 -0.344782 2.78155 -80.5679 -0.462756 86.8296 -0.130254 -25.1175 -27.9064 18.8912 -11.4506 -124.83 8.77008 0.128981 -1.98364 37.1364 7.3222 -9.57872 -2.33434 11.2834 -4.97152 
-11.0583 93.4634 62.0896 81.587 -44.6981 92.494 -167.06 -22.5644 100.856 -42.7071 31.5135 11.3414 57.0938 0.301557 4.27897 25.2418 0.438182 -5.12349 -179.816 51.9897 102.318 -52.7989 -0.772796 -0.596334 75.7187 -5.57602 -0.751578 21.8677 -1.75533 1.90897 -2.15437 8.25068 -91.0221 10.3415 -4.75964 -1.61705 -1.3215 -4.82618 -1.40559 -23.9027 -4.05351 -2.97438 -3.89005 -4.05351 -2.97438 91.2016 -35.3181 -102.491 37.1831 -9.26764 55.989 -45.5519 20.4176 -101.7 -4.16206 -0.290303 3.58753 -81.3399 -5.1465 85.5946 -3.82413 -15.0405 -30.7283 23.5299 -16.6726 -122.541 4.74343 0.0645196 -1.66716 35.4793 11.5215 -1.84316 0.969173 11.4176 -8.29346 
-4.45716 92.6957 68.4865 83.8794 -47.313 93.2966 -168.21 -19.4082 97.1931 -58.9139 30.1718 9.99591 57.6868 -0.107711 3.28196 26.9989 1.57626 -6.80823 178.217 46.5093 101.965 -50.2346 2.66581 1.22149 75.4995 -5.47507 -0.23999 22.243 -1.95872 2.68195 -2.04669 8.42209 -91.0629 9.9963 -4.56207 -1.73426 -1.66753 -4.63397 -1.53145 -24.2419 -3.82993 -3.02639 -4.22928 -3.82993 -3.0264 87.4816 -40.0226 -107.55 28.8441 -5.83134 48.733 -42.7693 19.0847 -105.652 -3.8503 -0.277281 3.96596 -82.8952 -12.1984 83.3992 -6.99043 -2.82978 -31.5575 28.3517 -20.695 -117.566 0.785111 -0.0416435 -2.5511 34.3771 13.6919 1.30569 1.45253 12.0582 -8.81446 
2.16389 91.8372 75.1861 86.6543 -49.2875 95.3557 -167.146 -13.6989 96.5482 -76.5626 28.6905 8.34024 58.3008 0.12167 4.32359 24.3801 0.661121 -6.5707 177.092 39.7081 100.905 -48.5666 5.98557 2.41479 73.1544 -4.72009 0.729225 22.9988 -1.75161 2.55391 -1.81759 8.63655 -91.192 9.56194 -4.16145 -2.04449 -2.10366 -4.24738 -1.85914 -24.6636 -3.35479 -3.20115 -4.65099 -3.35478 -3.20116 82.217 -47.3077 -113.382 16.6572 -3.21877 39.0595 -39.606 18.5362 -110.718 -2.93354 -0.210879 4.07697 -85.394 -21.7414 80.2367 -9.19934 7.92376 -30.5119 33.9007 -22.2224 -109.773 0.102736 -0.0484154 -2.4246 33.7727 15.0608 4.26977 1.35306 12.1427 -8.64795 
8.31191 91.105 81.716 87.0153 -51.7852 95.1941 -165.516 -3.75897 96.8744 -92.7497 20.3316 6.33187 58.828 0.535205 4.37799 24.6736 1.13449 -7.6571 175.308 36.8104 99.9165 -52.6674 6.11085 3.04959 68.9549 -3.3047 1.23207 22.8367 -2.30951 4.10787 -1.42833 8.66668 -91.2356 9.5043 -3.40444 -2.19168 -2.16382 -3.49756 -2.03965 -24.7069 -2.58866 -3.11344 -4.69424 -2.58866 -3.11344 80.9238 -50.0691 -114.261 11.6591 0.0206089 23.7435 -35.6007 18.0411 -114.329 -4.05007 -0.329832 5.23924 -87.5846 -29.964 78.1026 -14.5203 17.2138 -25.7976 39.4306 -21.1803 -100.414 -0.868838 -0.0852667 -4.18308 33.2334 15.2554 5.69424 2.02697 11.7639 -7.38048 
13.839 89.7437 87.7334 86.852 -53.8917 95.3545 -163.961 7.07716 97.0126 -109.486 15.9794 6.36164 59.6767 0.560748 5.45848 23.6194 0.215067 -6.01255 172.972 34.591 100.487 -60.5727 4.58474 3.06093 77.3529 -6.06123 1.93069 23.0854 -2.69325 5.33175 -0.946917 8.62778 -91.3924 9.58334 -2.51596 -2.56684 -2.08749 -2.62646 -2.45366 -24.612 -1.62865 -3.20387 -4.59937 -1.62866 -3.20387 82.8483 -50.0723 -111.402 11.3105 2.25916 4.33422 -34.7445 19.1426 -116.719 -2.42981 -0.184861 5.06081 -89.609 -37.1643 76.447 -22.6191 22.3448 -14.1524 42.3514 -19.2332 -94.4771 -2.23791 -0.0886245 -5.82121 31.4581 15.3442 8.10831 4.12274 10.9101 -6.44663 
19.1615 89.0319 93.6902 89.6473 -57.0436 101.007 -164.009 20.9108 99.6163 -123.3 20.0279 7.82783 59.5672 0.596983 8.19096 20.2076 -0.598477 -6.8202 172.208 27.212 102.48 -61.5746 0.982156 3.52997 82.3368 -7.95986 1.07415 24.9397 -1.67958 3.34946 -0.300874 8.82209 -91.8191 9.19456 -1.41459 -3.50204 -2.48016 -1.56726 -3.43649 -24.9781 -0.297541 -3.7649 -4.96543 -0.297533 -3.7649 84.0996 -49.7496 -109.64 11.0939 5.40428 -18.639 -36.0655 20.4854 -117.592 -2.45468 -0.211649 6.61101 -90.7231 -42.3033 75.979 -31.3267 21.2393 4.21726 41.4356 -19.5466 -95.3612 -3.00453 -0.0676851 -7.64181 30.0827 15.2515 9.76502 6.26561 10.303 -4.70999 
